<?xml version="1.0" standalone="no"?>
<!DOCTYPE svg PUBLIC "-//W3C//DTD SVG 20010904//EN"
 "http://www.w3.org/TR/2001/REC-SVG-20010904/DTD/svg10.dtd">
<svg version="1.0" xmlns="http://www.w3.org/2000/svg"
 width="512.000000pt" height="512.000000pt" viewBox="0 0 512.000000 512.000000"
 preserveAspectRatio="xMidYMid meet">
<metadata>
Created by potrace 1.14, written by Peter Selinger 2001-2017
</metadata>
<g transform="translate(0.000000,512.000000) scale(0.100000,-0.100000)"
fill="#000000" stroke="none">
<path d="M2406 5113 c-2 -2 -32 -5 -67 -9 -35 -3 -80 -7 -99 -10 -19 -2 -51
-7 -70 -9 -29 -4 -50 -8 -100 -20 -3 -1 -25 -5 -50 -9 -64 -12 -67 -13 -145
-36 -84 -25 -86 -25 -105 -33 -8 -3 -40 -13 -70 -23 -30 -9 -73 -25 -95 -35
-21 -10 -43 -15 -47 -13 -4 3 -8 1 -8 -4 0 -5 -27 -20 -60 -33 -33 -13 -60
-27 -60 -31 0 -3 -13 -9 -30 -13 -17 -4 -30 -10 -30 -15 0 -4 -10 -10 -22 -14
-13 -3 -47 -21 -75 -40 -29 -19 -53 -32 -53 -28 0 4 -4 2 -8 -3 -9 -13 -66
-50 -71 -46 -2 1 -7 -2 -10 -7 -3 -6 -30 -26 -59 -47 -54 -37 -77 -55 -117
-90 -13 -11 -40 -33 -61 -50 -74 -57 -236 -225 -319 -330 -22 -27 -44 -55 -50
-62 -5 -7 -15 -18 -21 -25 -30 -37 -148 -225 -191 -303 -72 -133 -179 -387
-197 -470 -2 -5 -8 -30 -15 -55 -8 -25 -14 -49 -16 -55 -1 -5 -5 -17 -8 -25
-4 -8 -9 -31 -11 -50 -3 -19 -14 -84 -25 -144 -11 -59 -23 -145 -27 -190 -13
-150 -8 -419 11 -551 2 -16 6 -46 9 -65 6 -48 17 -108 23 -134 3 -11 7 -36 10
-53 3 -18 9 -33 15 -33 5 0 7 -4 4 -8 -6 -11 32 -152 46 -169 6 -7 8 -13 4
-13 -5 0 38 -125 72 -205 74 -176 235 -448 339 -572 10 -12 29 -37 43 -55 28
-37 279 -291 325 -328 99 -82 164 -130 174 -130 6 0 11 -3 11 -8 0 -4 16 -16
35 -26 19 -11 35 -22 35 -26 0 -5 10 -10 23 -14 12 -3 32 -13 43 -23 11 -10
30 -24 42 -30 37 -21 235 -120 277 -138 22 -9 48 -21 58 -26 10 -5 22 -7 27
-4 6 4 10 2 10 -3 0 -7 53 -27 100 -38 3 0 12 -3 20 -7 26 -10 108 -36 132
-42 189 -42 260 -56 293 -60 22 -2 40 -4 40 -5 0 -13 505 -19 600 -7 33 4 78
10 100 13 39 6 51 8 110 20 17 4 39 7 50 9 11 1 27 4 35 7 8 3 60 18 115 32
94 25 291 93 332 114 10 6 61 31 113 56 107 52 198 102 220 121 8 7 20 14 25
16 26 11 85 52 85 60 0 5 5 9 11 9 9 0 55 31 96 65 7 6 18 15 25 20 135 104
301 271 439 445 52 65 194 283 209 322 8 18 16 35 20 38 24 22 157 333 175
412 2 9 9 26 15 37 6 12 9 21 6 21 -2 0 3 21 11 48 8 26 17 58 20 72 9 46 11
55 13 58 4 3 6 13 15 72 5 30 9 57 10 60 3 13 15 101 22 155 10 80 9 442 -1
530 -15 129 -14 126 -36 230 -6 28 -13 65 -16 82 -6 36 -69 242 -104 338 -28
79 -160 346 -205 413 -19 30 -35 58 -35 63 0 5 -4 9 -10 9 -5 0 -10 7 -10 15
0 8 -4 15 -10 15 -5 0 -10 7 -10 15 0 8 -3 15 -7 15 -5 0 -21 20 -36 45 -16
25 -33 45 -37 45 -5 0 -10 6 -12 13 -8 34 -270 310 -372 393 -27 21 -55 45
-62 52 -7 6 -17 12 -22 12 -6 0 -12 4 -14 9 -3 9 -173 131 -183 131 -3 0 -21
11 -39 25 -18 14 -38 25 -44 25 -6 0 -12 3 -14 8 -5 10 -175 93 -333 162 -54
23 -247 84 -305 95 -8 2 -15 4 -15 5 0 1 -13 4 -30 6 -16 3 -43 9 -60 14 -51
15 -192 36 -315 46 -73 6 -359 11 -364 7z"/>
</g>
</svg>
